{"title":"August Rush 2007 DVDRip VamSin","uid":5391709,"size":735297484,"categoryP":"video","categoryS":"movies","magnet":"?xt=urn:btih:fa1464549c6bb44b5f586cfb1daa96bf5e7467ad&amp;dn=August+Rush+2007+DVDRip+VamSin&amp;tr=udp%3A%2F%2Ftracker.openbittorrent.com%3A80&amp;tr=udp%3A%2F%2Fopen.demonii.com%3A1337&amp;tr=udp%3A%2F%2Ftracker.coppersurfer.tk%3A6969&amp;tr=udp%3A%2F%2Fexodus.desync.com%3A6969","seeders":0,"leechers":1,"uploader":"VamSin","files":-1,"time":1267089619,"description":"General\nComplete name                    : August Rush 2007 DVDRip VamSin\nFormat                           : AVI\nFormat/Info                      : Audio Video Interleave\nFile size                        : 699 MiB\nDuration                         : 1h 54mn\nOverall bit rate                 : 856 Kbps\nWriting application              : VirtualDubMod 1.5.10.2 (build 2540/release)\nWriting library                  : VirtualDubMod build 2540/release\n\nVideo\nID                               : 0\nFormat                           : MPEG-4 Visual\nFormat profile                   : Simple@L0\nFormat settings, BVOP            : No\nFormat settings, QPel            : No\nFormat settings, GMC             : No warppoints\nFormat settings, Matrix          : Default (H.263)\nCodec ID                         : DX50\nCodec ID/Hint                    : DivX 5\nDuration                         : 1h 54mn\nBit rate                         : 734 Kbps\nWidth                            : 616 pixels\nHeight                           : 256 pixels\nDisplay aspect ratio             : 2.40:1\nFrame rate                       : 23.976 fps\nResolution                       : 8 bits\nColorimetry                      : 4:2:0\nScan type                        : Progressive\nBits/(Pixel*Frame)               : 0.194\nStream size                      : 600 MiB (86%)\nWriting library                  : XviD 1.0.3 (UTC 2004-12-20)\n\nAudio\nID                               : 1\nFormat                           : MPEG Audio\nFormat version                   : Version 1\nFormat profile                   : Layer 3\nMode                             : Joint stereo\nCodec ID                         : 55\nCodec ID/Hint                    : MP3\nDuration                         : 1h 54mn\nBit rate mode                    : Constant\nBit rate                         : 112 Kbps\nChannel(s)                       : 2 channels\nSampling rate                    : 44.1 KHz\nVideo delay                      : 10ms\nStream size                      : 91.6 MiB (13%)\nAlignment                        : Split accross interleaves\nInterleave, duration             : 42 ms (1.00 video frame)\nInterleave, preload duration     : 500 ms &lt;a href=&quot;\nhttp://bayimg.com/mAKCHaaCN&quot; rel=&quot;nofollow&quot; target=&quot;_NEW&quot;&gt;\nhttp://bayimg.com/mAKCHaaCN&lt;/a&gt;\nhttp://bayimg.com/makcJAaCN\nhttp://bayimg.com/mAKCkaACN\nhttp://bayimg.com/maKcLaaCn\nhttp://bayimg.com/MaKcMAacN\nhttp://bayimg.com/MAKcnaACN\nhttp://bayimg.com/MaKCpAACn\nhttp://bayimg.com/NAkCaAACn\n","torrent":{"xt":"urn:btih:fa1464549c6bb44b5f586cfb1daa96bf5e7467ad","amp;dn":"August+Rush+2007+DVDRip+VamSin","amp;tr":["udp%3A%2F%2Ftracker.openbittorrent.com%3A80","udp%3A%2F%2Fopen.demonii.com%3A1337","udp%3A%2F%2Ftracker.coppersurfer.tk%3A6969","udp%3A%2F%2Fexodus.desync.com%3A6969"],"infoHash":"fa1464549c6bb44b5f586cfb1daa96bf5e7467ad","infoHashBuffer":{"type":"Buffer","data":[250,20,100,84,156,107,180,75,95,88,108,251,29,170,150,191,94,116,103,173]},"announce":[],"urlList":[]}}